<?xml version="1.0" standalone="no"?>
<!DOCTYPE svg PUBLIC "-//W3C//DTD SVG 20010904//EN"
 "http://www.w3.org/TR/2001/REC-SVG-20010904/DTD/svg10.dtd">
<svg version="1.0" xmlns="http://www.w3.org/2000/svg"
 width="128.000000pt" height="128.000000pt" viewBox="0 0 128.000000 128.000000"
 preserveAspectRatio="xMidYMid meet">

<g transform="translate(0.000000,128.000000) scale(0.100000,-0.100000)"
fill="#000000" stroke="none">
<path d="M200 1260 c0 -13 -7 -20 -20 -20 -13 0 -20 -7 -20 -20 0 -13 -7 -20
-20 -20 -17 0 -20 -7 -20 -40 0 -33 -3 -40 -20 -40 -18 0 -20 -7 -20 -80 l0
-80 40 0 40 0 0 -60 0 -60 40 0 40 0 0 -40 c0 -33 -3 -40 -20 -40 -13 0 -20
-7 -20 -20 0 -13 -7 -20 -20 -20 -13 0 -20 -7 -20 -20 0 -13 -7 -20 -20 -20
-18 0 -20 -7 -20 -60 0 -53 -2 -60 -20 -60 -19 0 -20 -7 -20 -140 0 -133 1
-140 20 -140 13 0 20 -7 20 -20 0 -13 7 -20 20 -20 13 0 20 -7 20 -20 0 -13 7
-20 20 -20 13 0 20 -7 20 -20 0 -19 7 -20 240 -20 233 0 240 -1 240 -20 0 -18
7 -20 80 -20 73 0 80 2 80 20 0 17 7 20 40 20 33 0 40 -3 40 -20 0 -17 7 -20
40 -20 33 0 40 3 40 20 0 13 7 20 20 20 13 0 20 7 20 20 0 13 7 20 20 20 18 0
20 7 20 80 0 73 2 80 20 80 13 0 20 7 20 20 0 17 7 20 40 20 l40 0 0 120 c0
113 -1 120 -20 120 -17 0 -20 7 -20 40 l0 40 -40 0 -40 0 0 80 c0 73 2 80 20
80 17 0 20 7 20 40 0 33 3 40 20 40 18 0 20 7 20 80 0 73 2 80 20 80 18 0 20
7 20 80 l0 80 -500 0 c-493 0 -500 0 -500 -20z m680 -120 c0 -17 7 -20 40 -20
33 0 40 -3 40 -20 0 -13 7 -20 20 -20 13 0 20 -7 20 -20 0 -17 -7 -20 -40 -20
-33 0 -40 -3 -40 -20 0 -13 -7 -20 -20 -20 -13 0 -20 -7 -20 -20 0 -13 -7 -20
-20 -20 -13 0 -20 7 -20 20 0 13 -7 20 -20 20 -17 0 -20 -7 -20 -40 l0 -40 60
0 c53 0 60 2 60 20 0 17 7 20 40 20 l40 0 0 -100 c0 -93 -1 -100 -20 -100 -17
0 -20 7 -20 40 l0 40 -40 0 c-33 0 -40 3 -40 20 0 17 -7 20 -40 20 -33 0 -40
3 -40 20 0 18 -7 20 -80 20 l-80 0 0 40 c0 33 -3 40 -20 40 -13 0 -20 -7 -20
-20 0 -13 -7 -20 -20 -20 -13 0 -20 7 -20 20 0 17 -7 20 -40 20 -33 0 -40 3
-40 20 0 13 -7 20 -20 20 -13 0 -20 7 -20 20 0 13 7 20 20 20 13 0 20 7 20 20
0 17 7 20 40 20 33 0 40 3 40 20 0 19 7 20 160 20 153 0 160 -1 160 -20z
m-440 -160 c0 -17 7 -20 40 -20 l40 0 0 -40 0 -40 -80 0 c-73 0 -80 -2 -80
-20 0 -13 -7 -20 -20 -20 -17 0 -20 7 -20 40 0 33 3 40 20 40 17 0 20 7 20 40
l0 40 40 0 c33 0 40 -3 40 -20z m280 -160 c0 -17 7 -20 40 -20 33 0 40 -3 40
-20 0 -17 7 -20 40 -20 33 0 40 -3 40 -20 0 -13 7 -20 20 -20 13 0 20 -7 20
-20 0 -17 7 -20 40 -20 33 0 40 -3 40 -20 0 -17 7 -20 40 -20 l40 0 0 -40 c0
-33 3 -40 20 -40 17 0 20 -7 20 -40 l0 -40 -40 0 -40 0 0 40 0 40 -40 0 -40 0
0 -100 c0 -93 -1 -100 -20 -100 -19 0 -20 7 -20 100 l0 100 -40 0 -40 0 0
-160 c0 -153 -1 -160 -20 -160 -13 0 -20 -7 -20 -20 0 -13 -7 -20 -20 -20 -19
0 -20 7 -20 200 l0 200 -40 0 c-33 0 -40 -3 -40 -20 0 -13 -7 -20 -20 -20 -19
0 -20 -7 -20 -140 0 -133 -1 -140 -20 -140 -13 0 -20 -7 -20 -20 0 -17 -7 -20
-40 -20 l-40 0 0 60 c0 53 -2 60 -20 60 -17 0 -20 7 -20 40 0 33 -3 40 -20 40
-18 0 -20 7 -20 60 l0 60 -40 0 -40 0 0 -120 c0 -113 1 -120 20 -120 17 0 20
-7 20 -40 l0 -40 -60 0 c-53 0 -60 2 -60 20 0 13 -7 20 -20 20 -13 0 -20 7
-20 20 0 13 -7 20 -20 20 -13 0 -20 7 -20 20 0 13 -7 20 -20 20 -18 0 -20 7
-20 60 0 53 2 60 20 60 18 0 20 7 20 60 0 53 2 60 20 60 17 0 20 7 20 40 l0
40 40 0 c33 0 40 3 40 20 0 17 7 20 40 20 33 0 40 3 40 20 0 13 7 20 20 20 13
0 20 7 20 20 0 18 7 20 60 20 53 0 60 2 60 20 0 18 7 20 80 20 73 0 80 -2 80
-20z"/>
</g>
</svg>
